<!-- Generated by IcoMoon.io -->
<svg version="1.1" xmlns="http://www.w3.org/2000/svg" width="32" height="32" viewBox="0 0 32 32">
<title>fbW</title>
<path fill="#fff" opacity="0.1" d="M32.002 16.001c0 0.006 0 0.013 0 0.021 0 4.412-1.791 8.406-4.686 11.293l-0 0c-2.888 2.895-6.881 4.687-11.294 4.687-0.007 0-0.014 0-0.022 0h0.001c-0.006 0-0.013 0-0.020 0-4.412 0-8.406-1.791-11.293-4.686l-0-0c-2.895-2.888-4.687-6.882-4.687-11.294 0-0.007 0-0.014 0-0.021v0.001c0-0.006 0-0.013 0-0.020 0-4.412 1.791-8.406 4.686-11.293l0-0c2.888-2.895 6.882-4.687 11.294-4.687 0.007 0 0.014 0 0.021 0h-0.001c0.006 0 0.013 0 0.020 0 4.412 0 8.406 1.791 11.294 4.686l0 0c2.895 2.888 4.687 6.882 4.687 11.294 0 0.007 0 0.014 0 0.021v-0.001z"></path>
<path fill="#fff" d="M18.423 11.142h1.329v-2.313c-0.56-0.065-1.21-0.102-1.868-0.102-0.024 0-0.047 0-0.071 0h0.004c-1.915 0-3.226 1.204-3.226 3.418v2.036h-2.113v2.586h2.113v6.506h2.591v-6.505h2.027l0.322-2.586h-2.35v-1.782c0-0.747 0.201-1.258 1.243-1.258z"></path>
</svg>
