<!-- Generated by IcoMoon.io -->
<svg version="1.1" xmlns="http://www.w3.org/2000/svg" width="43" height="32" viewBox="0 0 43 32">
<title>mail</title>
<path fill="#757575" d="M38.692 0h-34.689c-2.207 0-4.003 1.796-4.003 4.003v24.016c0 2.207 1.796 4.003 4.003 4.003h34.689c2.207 0 4.003-1.796 4.003-4.003v-24.016c0-2.207-1.796-4.003-4.003-4.003zM38.692 2.668c0.181 0 0.355 0.037 0.512 0.104l-17.857 15.477-17.857-15.477c0.151-0.065 0.327-0.104 0.512-0.104h34.689zM38.692 29.352h-34.689c-0.737 0-1.334-0.597-1.334-1.334v0-22.428l17.804 15.431c0.233 0.203 0.54 0.327 0.875 0.327s0.642-0.124 0.877-0.329l-0.002 0.001 17.804-15.431v22.428c0 0.737-0.597 1.334-1.334 1.334v0z"></path>
</svg>
