<!-- Generated by IcoMoon.io -->
<svg version="1.1" xmlns="http://www.w3.org/2000/svg" width="20" height="32" viewBox="0 0 20 32">
<title>tel</title>
<path fill="#757575" d="M17.005 0h-14.009c-1.655 0-3.002 1.347-3.002 3.002v26.017c0 1.655 1.347 3.002 3.002 3.002h14.009c1.655 0 3.002-1.347 3.002-3.002v-26.017c0-1.655-1.347-3.002-3.002-3.002zM2.995 2.001h14.009c0.553 0 1.001 0.448 1.001 1.001v0 21.014h-16.010v-21.014c0-0.553 0.448-1.001 1.001-1.001v0zM17.005 30.020h-14.009c-0.553 0-1.001-0.448-1.001-1.001v0-3.002h16.010v3.002c0 0.553-0.448 1.001-1.001 1.001v0z"></path>
<path fill="#757575" d="M4.705 27.496c0.18 0.164 0.293 0.399 0.293 0.66s-0.113 0.497-0.292 0.66l-0.001 0.001c-0.186 0.17-0.435 0.275-0.708 0.275s-0.522-0.104-0.709-0.276l0.001 0.001c-0.18-0.164-0.293-0.399-0.293-0.66s0.113-0.497 0.292-0.66l0.001-0.001c0.186-0.17 0.435-0.275 0.708-0.275s0.522 0.104 0.709 0.276l-0.001-0.001z"></path>
</svg>
